<svg xmlns="http://www.w3.org/2000/svg" width="63.506" height="120" viewBox="0 0 63.506 120">
  <g id="Grupo_3" data-name="Grupo 3" transform="translate(-1028.101 -1621.486)">
    <g id="Group_20" data-name="Group 20" transform="translate(1028.101 1621.486)">
      <path id="Caminho_5" data-name="Caminho 5" d="M1028.1,1673.093c0,10.177,3.266,14.523,3.266,16.852v39.091h36.9v-2.948l6.63-1.308v4.256h15.563v-59.958l-15.575-.007v28.742a9.561,9.561,0,0,0-6.656.043v-38.192c0-3.162-4.16-.071-5.261.538a108.6,108.6,0,0,0-11.98,7.593c-2.338,1.615-.7,1.252-5.329,1.274.07-2.663,6.628-8.543,9.452-10.444a60.351,60.351,0,0,1,10.12-5.39c1.542-.618,2.784-.644,2.784-2.364v-27.841c0-2.7-1.683-1.157-3.1-.614a111,111,0,0,0-21.338,16.855c-8.437,8.337-15.473,21.811-15.473,33.824Zm2.23.733c0-12.172,5.965-22.869,12.095-29.99l5.114-5.576c5.16-5.137,15.7-13.064,18.242-13.789-.09,8.255.233,18.251-.039,26.157a38.8,38.8,0,0,1-4.493,2.141c-1.574.755-8.732,3.945-12.184,7.892-13.234,13.128-8.96,32.114,5.159,42.124,13.562,9.616,20.7,3.111,20.614,7.657-.048,2.6-5.665,2.386-8.191,2.386-10.507,0-21.617-8.087-27.655-15.15a36.932,36.932,0,0,1-5.261-8.611,38.043,38.043,0,0,1-3.4-15.241Zm38.892,25.836c4.388-1.114,19.007,2.21,16.039,13.9-1.9,7.484-10.776,10.04-20.239,10.733-13.868,1.015-24.172-6.651-29.552-17.043-1.6-3.085-2.613-8.667-1.607-11.942a1.287,1.287,0,0,1,.236-.541c.821,2.151,8.431,9.581,10.523,11.184,2.434,1.952,3.656,2.117,5.014,4.45,6.1,10.476,27.6,9.653,30.252,1.687,1.3-3.891-.138-6.985-3.415-8.195-2.5-.923-4.858-.772-7.348-1.5-.726-.211-.81-2.268.1-2.734Zm-25.882-21.44c0-1.152.132-1.029.894-1.711,3.328-2.979,4.561-4.7,9.392-8.008,1.966-1.347,10.076-6.869,12.428-7.439-.068,7.076.173,15.19-.035,22.037-13.325,4-16.711,12.1-16.711,12.1C1045.767,1691.377,1043.343,1684.452,1043.343,1678.222Z" transform="translate(-1028.101 -1621.486)" fill="#006764" fill-rule="evenodd"/>
      <path id="Caminho_6" data-name="Caminho 6" d="M1038.321,1755.581c-.052.258-.116.62-.191,1.082s-.121.823-.148,1.077a16.925,16.925,0,0,1-2.53.217,7.17,7.17,0,0,1-2-.272,4.925,4.925,0,0,1-1.695-.88,3.517,3.517,0,0,1-1.1-1.443,5.4,5.4,0,0,1,.118-4.013,4.206,4.206,0,0,1,1.285-1.6,5.32,5.32,0,0,1,1.836-.914,7.8,7.8,0,0,1,2.068-.272,14.283,14.283,0,0,1,2.425.257l.013.555c.008.243.021.507.037.8l.045.751q-.773-.18-1.255-.246a6.809,6.809,0,0,0-.891-.065,3.559,3.559,0,0,0-1.611.358,2.707,2.707,0,0,0-1.124,1.04,2.863,2.863,0,0,0-.412,1.511,2.378,2.378,0,0,0,.344,1.3,2.329,2.329,0,0,0,.93.835,3.2,3.2,0,0,0,1.451.293,7.6,7.6,0,0,0,1.023-.074,12.163,12.163,0,0,0,1.387-.292Zm.085,2.2c.749-.01,1.29-.014,1.627-.014q.278,0,1.514.014.615-1.409,1.188-2.58h3.336q.552,1.484.843,2.58c.72-.01,1.271-.014,1.638-.014q.244,0,1.392.014l-.385-.969-1.97-5.318-.966-2.767q-.8.013-1.729.013-.537,0-1.7-.013c-.191.4-.338.7-.444.916l-.362.726-3.426,6.461-.55.955Zm5.128-4.506.475-.98q.306-.624.741-1.6.073.237.843,2.577Zm7.142,4.506.133-1.7.176-3.315.073-2.346c0-.254.007-.505.007-.759,0-.19,0-.5-.007-.934q.876.019,1.4.02c.339,0,.805-.011,1.4-.03s1.093-.031,1.5-.031a5.584,5.584,0,0,1,1.312.113,2.372,2.372,0,0,1,.771.355,2.266,2.266,0,0,1,.571.568,2.387,2.387,0,0,1,.336.739,3.2,3.2,0,0,1,.114.847,3.16,3.16,0,0,1-.43,1.625,2.69,2.69,0,0,1-1.211,1.1,4.116,4.116,0,0,1-1.752.363,4.908,4.908,0,0,1-.829-.081c-.034-.2-.1-.5-.2-.9s-.182-.7-.238-.89a3.255,3.255,0,0,0,.606.054,1.367,1.367,0,0,0,1-.323,1.127,1.127,0,0,0,.253-1.191.68.68,0,0,0-.232-.289.866.866,0,0,0-.352-.145,2.513,2.513,0,0,0-.436-.033q-.236,0-.5.013l-.556.038q-.086,1.281-.131,2.846-.082,2.85-.084,3.421v.862l-1.322-.014c-.181,0-.647.005-1.381.014Zm13.953-5.267q.907.014,1.728.014,1.4,0,2.2-.014c-.057.6-.114,1.461-.172,2.568s-.09,1.943-.107,2.509c-.509.09-.931.16-1.262.2s-.734.079-1.2.113-.886.05-1.253.05a10.731,10.731,0,0,1-1.77-.145,5.956,5.956,0,0,1-1.556-.471,3.279,3.279,0,0,1-1.143-.882,3.991,3.991,0,0,1-.7-1.319,5.066,5.066,0,0,1-.249-1.579,4.893,4.893,0,0,1,.669-2.5,4.791,4.791,0,0,1,1.925-1.828,6.857,6.857,0,0,1,3.244-.671,16.49,16.49,0,0,1,3.214.352q0,.964.081,2.145c-.319-.106-.573-.181-.77-.242a5.717,5.717,0,0,0-.691-.151c-.262-.045-.514-.082-.748-.1s-.448-.034-.635-.034a4.521,4.521,0,0,0-1.379.208,2.937,2.937,0,0,0-1.115.642,2.727,2.727,0,0,0-.7,1.033,3.5,3.5,0,0,0-.232,1.271,2.7,2.7,0,0,0,.265,1.212,1.771,1.771,0,0,0,.844.81,2.934,2.934,0,0,0,1.29.278,5.288,5.288,0,0,0,1.294-.182l.068-1.411c-.286-.01-.454-.014-.508-.014l-.7.007.046-.817c0-.091.011-.218.021-.383s.013-.393.013-.68Zm10.744-3.95a7.251,7.251,0,0,1,2.041.285,4.535,4.535,0,0,1,1.717.912,4.086,4.086,0,0,1,1.1,1.441,4.585,4.585,0,0,1,.363,1.876,5.126,5.126,0,0,1-.4,2.045,4.27,4.27,0,0,1-1.159,1.581,4.7,4.7,0,0,1-1.8.953,7.838,7.838,0,0,1-2.177.3,7.712,7.712,0,0,1-2.147-.294,4.648,4.648,0,0,1-1.788-.954,3.789,3.789,0,0,1-1.077-1.469,4.865,4.865,0,0,1-.319-1.795,4.782,4.782,0,0,1,.672-2.55,4.511,4.511,0,0,1,2-1.714,6.98,6.98,0,0,1,2.978-.615Zm-.119,2a2.59,2.59,0,0,0-1.381.376,2.492,2.492,0,0,0-.951,1.04,3.181,3.181,0,0,0-.332,1.43,2.749,2.749,0,0,0,.3,1.287,2.113,2.113,0,0,0,.921.913,2.727,2.727,0,0,0,1.307.328,2.568,2.568,0,0,0,1.352-.368,2.4,2.4,0,0,0,.939-1.034,3.175,3.175,0,0,0,.32-1.4,2.9,2.9,0,0,0-.3-1.31,2.153,2.153,0,0,0-.878-.931,2.56,2.56,0,0,0-1.3-.333Zm8.8,7.221-.245-.81-1.617-4.662-1.27-3.582q.9.013,1.606.013c.287,0,.737,0,1.353-.013q.154.59.238.9c.079.266.231.744.453,1.44l.974,3.135c.1.328.215.753.358,1.279l.306-.762,2.323-5.067c.041-.09.086-.2.137-.317s.133-.321.244-.6q.957.013,1.542.013c.241,0,.726,0,1.44-.013q-.675,1.257-1.533,2.945l-2.289,4.536c-.219.444-.468.966-.742,1.573q-1.112-.014-1.593-.014c-.3,0-.857,0-1.679.011Z" transform="translate(-1028.39 -1637.957)" fill="#006764" fill-rule="evenodd"/>
    </g>
  </g>
</svg>
