<svg xmlns="http://www.w3.org/2000/svg" width="729.569" height="646.041" viewBox="0 0 729.569 646.041">
  <g id="Group_11" data-name="Group 11" transform="translate(0 0.001)">
    <g id="Group_12" data-name="Group 12" transform="translate(0 -0.001)">
      <path id="Path_16" data-name="Path 16" d="M675.545,415.57c-.021-147.207-119.373-266.524-266.58-266.5s-266.524,119.373-266.5,266.58v.077c.021,147.206,119.373,266.523,266.58,266.5s266.523-119.373,266.5-266.58Z" transform="translate(-39.37 -41.194)" fill="#d4e5b0"/>
      <path id="Path_17" data-name="Path 17" d="M312.408,434.906h-63.39a26.654,26.654,0,0,1-26.654-26.654V316.009h96.261V231.761a26.654,26.654,0,0,1,26.654-26.654H589.424q.423,0,.846.013a26.654,26.654,0,0,1,25.808,27.473l-1.846,59.046V394.925a26.655,26.655,0,0,1-26.654,26.654H545.891" transform="translate(-61.45 -56.681)" fill="none" stroke="#143332" stroke-linecap="round" stroke-linejoin="round" stroke-width="1"/>
      <path id="Path_18" data-name="Path 18" d="M443.111,641.746v34.437a26.655,26.655,0,0,1-26.654,26.654H320.882V522.662" transform="translate(-88.676 -144.437)" fill="none" stroke="#143332" stroke-linecap="round" stroke-linejoin="round" stroke-width="1"/>
      <line id="Line_6" data-name="Line 6" y1="69.028" transform="translate(379.17 187.301)" fill="none" stroke="#143332" stroke-linecap="round" stroke-linejoin="round" stroke-width="1"/>
      <path id="Path_19" data-name="Path 19" d="M650.359,504.245v162.4H489.788" transform="translate(-135.353 -139.347)" fill="none" stroke="#143332" stroke-linecap="round" stroke-linejoin="round" stroke-width="1"/>
      <path id="Path_20" data-name="Path 20" d="M269.219,345.047a74.418,74.418,0,1,0-148.837.018v.019a74.418,74.418,0,0,0,148.837-.019Z" transform="translate(-33.268 -74.79)" fill="#fff"/>
      <path id="Path_21" data-name="Path 21" d="M269.219,345.047a74.418,74.418,0,1,0-148.837.018v.019a74.418,74.418,0,0,0,148.837-.019Z" transform="translate(-33.268 -74.79)" fill="none" stroke="#143332" stroke-linecap="round" stroke-linejoin="round" stroke-width="1"/>
      <path id="Path_22" data-name="Path 22" d="M734.844,266.738a63.3,63.3,0,1,0,63.3,63.3,63.3,63.3,0,0,0-63.3-63.3" transform="translate(-185.58 -73.712)" fill="#fff"/>
      <circle id="Ellipse_2" data-name="Ellipse 2" cx="63.304" cy="63.304" r="63.304" transform="translate(459.739 256.329) rotate(-45)" fill="none" stroke="#143332" stroke-linecap="round" stroke-linejoin="round" stroke-width="1"/>
      <path id="Path_23" data-name="Path 23" d="M759.045,698.464a76.631,76.631,0,1,0-76.63,76.63,76.63,76.63,0,0,0,76.63-76.63" transform="translate(-167.408 -171.843)" fill="#fff"/>
      <circle id="Ellipse_3" data-name="Ellipse 3" cx="76.631" cy="76.631" r="76.631" transform="translate(438.179 450.188) rotate(-0.147)" fill="none" stroke="#143332" stroke-linecap="round" stroke-linejoin="round" stroke-width="1"/>
      <path id="Path_24" data-name="Path 24" d="M362.214,736.554a66.878,66.878,0,1,0,0,.019v-.019" transform="translate(-63.14 -185.069)" fill="#fff"/>
      <path id="Path_25" data-name="Path 25" d="M362.214,736.554a66.878,66.878,0,1,0,0,.019Z" transform="translate(-63.14 -185.069)" fill="none" stroke="#143332" stroke-linecap="round" stroke-linejoin="round" stroke-width="1"/>
      <path id="Path_26" data-name="Path 26" d="M387.37,397.074H375.375a19.99,19.99,0,0,1-19.99-19.991V358.359" transform="translate(-98.211 -99.032)" fill="none" stroke="#143332" stroke-linecap="round" stroke-linejoin="round" stroke-width="1"/>
      <path id="Path_27" data-name="Path 27" d="M570.517,220.215a62.795,62.795,0,1,0,0,.007Z" transform="translate(-114.037 -29.501)" fill="#fff"/>
      <path id="Path_28" data-name="Path 28" d="M570.517,220.215a62.795,62.795,0,1,0,0,.007Z" transform="translate(-114.037 -29.501)" fill="none" stroke="#143332" stroke-linecap="round" stroke-linejoin="round" stroke-width="1"/>
      <path id="Path_29" data-name="Path 29" d="M246,324.69a33.8,33.8,0,0,1,.442,47.8l-47.8-47.8a33.8,33.8,0,0,1,47.362,0" transform="translate(-54.895 -87.052)" fill="#fff"/>
      <path id="Path_30" data-name="Path 30" d="M584.84,540.8c0,6.093-3.772,11.033-8.426,11.033H431.065c-4.654,0-8.426-4.94-8.426-11.033V408.415h162.2Z" transform="translate(-116.796 -112.865)" fill="#146764"/>
      <path id="Path_31" data-name="Path 31" d="M584.84,381.909a8.426,8.426,0,0,0-8.426-8.426H431.065a8.426,8.426,0,0,0-8.426,8.426v16.852h162.2Z" transform="translate(-116.796 -103.211)" fill="#fff"/>
      <path id="Path_32" data-name="Path 32" d="M584.84,381.909a8.426,8.426,0,0,0-8.426-8.426H431.065a8.426,8.426,0,0,0-8.426,8.426v16.852h162.2Z" transform="translate(-116.796 -103.211)" fill="none" stroke="#143332" stroke-linecap="round" stroke-linejoin="round" stroke-width="1"/>
      <path id="Path_33" data-name="Path 33" d="M584.84,540.8c0,6.093-3.772,11.033-8.426,11.033H431.065c-4.654,0-8.426-4.94-8.426-11.033V408.415h162.2Z" transform="translate(-116.796 -112.865)" fill="none" stroke="#143332" stroke-linecap="round" stroke-linejoin="round" stroke-width="1"/>
      <path id="Path_34" data-name="Path 34" d="M434.276,389.34a4.213,4.213,0,1,0,4.213-4.213,4.213,4.213,0,0,0-4.213,4.213" transform="translate(-120.012 -106.429)" fill="#146764"/>
      <circle id="Ellipse_4" data-name="Ellipse 4" cx="4.213" cy="4.213" r="4.213" transform="translate(312.972 280.631) rotate(-22.5)" fill="none" stroke="#143332" stroke-linecap="round" stroke-linejoin="round" stroke-width="1"/>
      <path id="Path_35" data-name="Path 35" d="M457.564,389.34a4.213,4.213,0,1,0,4.213-4.213,4.213,4.213,0,0,0-4.213,4.213" transform="translate(-126.448 -106.429)" fill="#146764"/>
      <circle id="Ellipse_5" data-name="Ellipse 5" cx="4.213" cy="4.213" r="4.213" transform="translate(329.825 280.631) rotate(-22.5)" fill="none" stroke="#143332" stroke-linecap="round" stroke-linejoin="round" stroke-width="1"/>
      <path id="Path_36" data-name="Path 36" d="M480.852,389.338a4.213,4.213,0,0,0,8.426.009v-.009a4.213,4.213,0,0,0-8.426-.009Z" transform="translate(-132.883 -106.427)" fill="#146764"/>
      <path id="Path_37" data-name="Path 37" d="M480.852,389.338a4.213,4.213,0,0,0,8.426.009v-.009a4.213,4.213,0,0,0-8.426-.009Z" transform="translate(-132.883 -106.427)" fill="none" stroke="#143332" stroke-linecap="round" stroke-linejoin="round" stroke-width="1"/>
      <path id="Path_38" data-name="Path 38" d="M530.1,481.948l-.891-7.125a2.4,2.4,0,0,0-2.672-2.078L520,473.56a30.964,30.964,0,0,0-6.105-10.71l4.027-5.2a2.394,2.394,0,0,0-.422-3.359h0l-5.678-4.4a2.393,2.393,0,0,0-3.358.42l0,0-4.027,5.2a30.962,30.962,0,0,0-11.89-3.265l-.819-6.514a2.4,2.4,0,0,0-2.672-2.078l-7.125.891a2.394,2.394,0,0,0-2.078,2.672l.815,6.524a30.97,30.97,0,0,0-10.709,6.105l-5.2-4.027a2.392,2.392,0,0,0-3.358.42l0,0L457,461.921a2.4,2.4,0,0,0,.423,3.361l5.188,4.027a30.988,30.988,0,0,0-3.265,11.89l-6.514.82a2.4,2.4,0,0,0-2.078,2.672l.9,7.125a2.4,2.4,0,0,0,2.672,2.078l6.514-.82a30.964,30.964,0,0,0,6.105,10.71l-4.027,5.188a2.4,2.4,0,0,0,.423,3.361l5.678,4.407a2.4,2.4,0,0,0,3.362-.423l4.038-5.173a30.955,30.955,0,0,0,11.888,3.266l.827,6.5a2.4,2.4,0,0,0,2.672,2.078l7.125-.9A2.4,2.4,0,0,0,501,519.418l-.821-6.513a30.965,30.965,0,0,0,10.71-6.106l5.2,4.027a2.4,2.4,0,0,0,3.356-.426l4.409-5.678a2.391,2.391,0,0,0-.419-3.356l-.006-.005-5.2-4.027a30.963,30.963,0,0,0,3.265-11.89l6.514-.819a2.4,2.4,0,0,0,2.087-2.67v-.009m-36.909,23.314a22.118,22.118,0,1,1,19.176-24.713,22.118,22.118,0,0,1-19.176,24.713" transform="translate(-124.559 -122.598)" fill="#d4e5b0"/>
      <path id="Path_39" data-name="Path 39" d="M599.078,519.273l-1.633-4.859a2.56,2.56,0,0,0-3.24-1.615l-1.839.615a20.466,20.466,0,0,0-8.211-7.249l.389-1.912a2.562,2.562,0,0,0-1.994-3.023l-5.02-1.021a2.561,2.561,0,0,0-3.019,2l-.391,1.912a20.471,20.471,0,0,0-10.391,3.466l-1.453-1.285a2.562,2.562,0,0,0-3.615.223l-3.392,3.84a2.563,2.563,0,0,0,.221,3.615l1.459,1.292A20.053,20.053,0,0,0,554.768,526l-1.848.619a2.562,2.562,0,0,0-1.615,3.24l1.626,4.859a2.561,2.561,0,0,0,3.241,1.615l1.84-.614a20.459,20.459,0,0,0,8.211,7.248l-.389,1.912a2.563,2.563,0,0,0,2,3.021l5.02,1.021a2.561,2.561,0,0,0,3.02-2h0l.389-1.913a20.466,20.466,0,0,0,10.391-3.466l1.452,1.284a2.559,2.559,0,0,0,3.612-.217l0,0,3.39-3.837a2.559,2.559,0,0,0-.219-3.612l0,0-1.46-1.291a20.016,20.016,0,0,0,2.182-10.731l1.848-.617a2.56,2.56,0,0,0,1.62-3.238v0m-11.145,7.885a13,13,0,1,1-25.541-4.9c.017-.093.037-.187.056-.28a13,13,0,0,1,25.484,5.179" transform="translate(-152.316 -138.218)" fill="#d4e5b0"/>
      <path id="Path_40" data-name="Path 40" d="M68.794,191.092a3.2,3.2,0,0,0,6.221,0l8.849-38.349a25.51,25.51,0,0,1,19.125-19.125l38.35-8.855a3.2,3.2,0,0,0,0-6.221l-38.35-8.849A25.51,25.51,0,0,1,83.864,90.566L75.015,52.217a3.2,3.2,0,0,0-6.221,0L59.938,90.566a25.51,25.51,0,0,1-19.125,19.125L2.464,118.541a3.2,3.2,0,0,0,0,6.221l38.349,8.855a25.509,25.509,0,0,1,19.125,19.111Z" transform="translate(0 -13.749)" fill="#d4e5b0"/>
      <path id="Path_41" data-name="Path 41" d="M808.368,89.937a2.9,2.9,0,0,0,5.5,0l8.472-25.424a11.628,11.628,0,0,1,7.344-7.344L855.112,48.7a2.9,2.9,0,0,0,0-5.5l-25.424-8.473a11.614,11.614,0,0,1-7.344-7.343l-8.472-25.4a2.9,2.9,0,0,0-5.5,0l-8.458,25.4a11.59,11.59,0,0,1-7.344,7.343l-25.424,8.473a2.9,2.9,0,0,0,0,5.5l30.914,10.311Z" transform="translate(-294.75 0.001)" fill="#d4e5b0"/>
      <path id="Path_42" data-name="Path 42" d="M982.159,467.167a2.9,2.9,0,0,0,5.5,0l8.473-25.424a11.627,11.627,0,0,1,7.343-7.344l25.425-8.472a2.905,2.905,0,0,0,0-5.511l-25.425-8.473a11.582,11.582,0,0,1-7.343-7.343l-8.473-25.41a2.9,2.9,0,0,0-5.5,0l-8.472,25.41a11.629,11.629,0,0,1-7.344,7.343l-25.41,8.458a2.905,2.905,0,0,0,0,5.511l30.914,10.3Z" transform="translate(-301.319 -183.546)" fill="#d4e5b0"/>
      <line id="Line_7" data-name="Line 7" y2="6.365" transform="translate(514.411 471.012)" fill="none" stroke="#143332" stroke-linecap="round" stroke-linejoin="round" stroke-width="1"/>
      <line id="Line_8" data-name="Line 8" x2="4.506" y2="4.506" transform="translate(480.646 484.989)" fill="none" stroke="#143332" stroke-linecap="round" stroke-linejoin="round" stroke-width="1"/>
      <line id="Line_9" data-name="Line 9" x2="6.365" transform="translate(466.661 518.754)" fill="none" stroke="#143332" stroke-linecap="round" stroke-linejoin="round" stroke-width="1"/>
      <line id="Line_10" data-name="Line 10" x1="4.498" y2="4.506" transform="translate(543.669 484.989)" fill="none" stroke="#143332" stroke-linecap="round" stroke-linejoin="round" stroke-width="1"/>
      <line id="Line_11" data-name="Line 11" x1="6.365" transform="translate(555.788 518.754)" fill="none" stroke="#143332" stroke-linecap="round" stroke-linejoin="round" stroke-width="1"/>
      <path id="Path_43" data-name="Path 43" d="M682.65,741.506a9.086,9.086,0,0,1,4.538,7.861V752.6h0a4.537,4.537,0,0,0,4.537,4.537h13.61a4.536,4.536,0,0,0,4.535-4.538v-3.233a9.1,9.1,0,0,1,4.538-7.861,31.764,31.764,0,1,0-31.757,0" transform="translate(-184.26 -188.534)" fill="#d4e5b0"/>
      <path id="Path_44" data-name="Path 44" d="M701.25,788.01a6.808,6.808,0,0,0,13.613,0v-2.269H701.255Z" transform="translate(-193.79 -217.138)" fill="#146764"/>
      <path id="Path_45" data-name="Path 45" d="M701.25,788.01a6.808,6.808,0,0,0,13.613,0v-2.269H701.255Z" transform="translate(-193.79 -217.138)" fill="none" stroke="#143332" stroke-linecap="round" stroke-linejoin="round" stroke-width="1"/>
      <path id="Path_46" data-name="Path 46" d="M694.944,777.745a4.537,4.537,0,0,0,4.542,4.531h13.6a4.537,4.537,0,0,0,4.536-4.537v-3.234a8.962,8.962,0,0,1,.1-1.3H694.848a8.945,8.945,0,0,1,.1,1.3v3.239" transform="translate(-192.021 -213.673)" fill="#146764"/>
      <path id="Path_47" data-name="Path 47" d="M694.944,777.745a4.537,4.537,0,0,0,4.542,4.531h13.6a4.537,4.537,0,0,0,4.536-4.537v-3.234a8.962,8.962,0,0,1,.1-1.3H694.848a8.945,8.945,0,0,1,.1,1.3v3.239Z" transform="translate(-192.021 -213.673)" fill="none" stroke="#143332" stroke-linecap="round" stroke-linejoin="round" stroke-width="1"/>
      <path id="Path_48" data-name="Path 48" d="M682.65,741.506a9.086,9.086,0,0,1,4.538,7.861V752.6h0a4.537,4.537,0,0,0,4.537,4.537h13.61a4.536,4.536,0,0,0,4.535-4.538v-3.233a9.1,9.1,0,0,1,4.538-7.861,31.764,31.764,0,1,0-31.757,0Z" transform="translate(-184.26 -188.534)" fill="none" stroke="#143332" stroke-linecap="round" stroke-linejoin="round" stroke-width="1"/>
      <path id="Path_49" data-name="Path 49" d="M465.206,211.427c0,31.862,43.245,42.7,43.245,19.738,0,22.962,43.253,12.123,43.253-19.74s-16.877-52.307-36.277-57.2c-3.264-.825-6.976,2.455-6.976,5.82,0-3.366-3.712-6.645-6.975-5.82-19.4,4.895-36.27,25.337-36.27,57.2" transform="translate(-128.56 -42.584)" fill="#d4e5b0"/>
      <path id="Path_50" data-name="Path 50" d="M465.206,211.427c0,31.862,43.245,42.7,43.245,19.738,0,22.962,43.253,12.123,43.253-19.74s-16.877-52.307-36.277-57.2c-3.264-.825-6.976,2.455-6.976,5.82,0-3.366-3.712-6.645-6.975-5.82C482.081,159.123,465.206,179.565,465.206,211.427Z" transform="translate(-128.56 -42.584)" fill="none" stroke="#143332" stroke-linecap="round" stroke-linejoin="round" stroke-width="1"/>
      <rect id="Rectangle_12" data-name="Rectangle 12" width="22.32" height="22.32" transform="translate(368.732 145.124)" fill="#146764"/>
      <path id="Path_51" data-name="Path 51" d="M532.823,202.868a2.325,2.325,0,0,0-2.325-2.325H512.991l19.826,19.827Z" transform="translate(-141.765 -55.419)" fill="#fff"/>
      <rect id="Rectangle_13" data-name="Rectangle 13" width="22.32" height="22.32" transform="translate(368.732 145.124)" fill="none" stroke="#143332" stroke-linecap="round" stroke-linejoin="round" stroke-width="1"/>
      <line id="Line_12" data-name="Line 12" y2="4.186" transform="translate(371.522 140.938)" fill="none" stroke="#143332" stroke-linecap="round" stroke-linejoin="round" stroke-width="1"/>
      <line id="Line_13" data-name="Line 13" y2="4.186" transform="translate(377.101 140.938)" fill="none" stroke="#143332" stroke-linecap="round" stroke-linejoin="round" stroke-width="1"/>
      <line id="Line_14" data-name="Line 14" y2="4.186" transform="translate(382.681 140.938)" fill="none" stroke="#143332" stroke-linecap="round" stroke-linejoin="round" stroke-width="1"/>
      <line id="Line_15" data-name="Line 15" y2="4.186" transform="translate(388.262 140.938)" fill="none" stroke="#143332" stroke-linecap="round" stroke-linejoin="round" stroke-width="1"/>
      <line id="Line_16" data-name="Line 16" y2="4.184" transform="translate(371.522 167.444)" fill="none" stroke="#143332" stroke-linecap="round" stroke-linejoin="round" stroke-width="1"/>
      <line id="Line_17" data-name="Line 17" y2="4.184" transform="translate(377.101 167.444)" fill="none" stroke="#143332" stroke-linecap="round" stroke-linejoin="round" stroke-width="1"/>
      <line id="Line_18" data-name="Line 18" y2="4.184" transform="translate(382.681 167.444)" fill="none" stroke="#143332" stroke-linecap="round" stroke-linejoin="round" stroke-width="1"/>
      <line id="Line_19" data-name="Line 19" y2="4.184" transform="translate(388.262 167.444)" fill="none" stroke="#143332" stroke-linecap="round" stroke-linejoin="round" stroke-width="1"/>
      <line id="Line_20" data-name="Line 20" x2="4.186" transform="translate(364.546 164.653)" fill="none" stroke="#143332" stroke-linecap="round" stroke-linejoin="round" stroke-width="1"/>
      <line id="Line_21" data-name="Line 21" x2="4.186" transform="translate(364.546 159.073)" fill="none" stroke="#143332" stroke-linecap="round" stroke-linejoin="round" stroke-width="1"/>
      <line id="Line_22" data-name="Line 22" x2="4.186" transform="translate(364.546 153.493)" fill="none" stroke="#143332" stroke-linecap="round" stroke-linejoin="round" stroke-width="1"/>
      <line id="Line_23" data-name="Line 23" x2="4.186" transform="translate(364.546 147.914)" fill="none" stroke="#143332" stroke-linecap="round" stroke-linejoin="round" stroke-width="1"/>
      <line id="Line_24" data-name="Line 24" x2="4.184" transform="translate(391.052 164.653)" fill="none" stroke="#143332" stroke-linecap="round" stroke-linejoin="round" stroke-width="1"/>
      <line id="Line_25" data-name="Line 25" x2="4.184" transform="translate(391.052 159.073)" fill="none" stroke="#143332" stroke-linecap="round" stroke-linejoin="round" stroke-width="1"/>
      <line id="Line_26" data-name="Line 26" x2="4.184" transform="translate(391.052 153.493)" fill="none" stroke="#143332" stroke-linecap="round" stroke-linejoin="round" stroke-width="1"/>
      <line id="Line_27" data-name="Line 27" x2="4.184" transform="translate(391.052 147.914)" fill="none" stroke="#143332" stroke-linecap="round" stroke-linejoin="round" stroke-width="1"/>
      <line id="Line_28" data-name="Line 28" y1="17.894" transform="translate(379.891 117.464)" fill="none" stroke="#143332" stroke-linecap="round" stroke-linejoin="round" stroke-width="1"/>
      <line id="Line_29" data-name="Line 29" y2="8.579" transform="translate(379.891 179.999)" fill="none" stroke="#143332" stroke-linecap="round" stroke-linejoin="round" stroke-width="1"/>
      <line id="Line_30" data-name="Line 30" x2="8.37" transform="translate(374.311 161.863)" fill="none" stroke="#143332" stroke-linecap="round" stroke-linejoin="round" stroke-width="1"/>
      <path id="Path_52" data-name="Path 52" d="M550.077,179.129v.7q.012.249,0,.5a4.89,4.89,0,0,1-9.767-.5v0a6.276,6.276,0,0,0-6.278-6.275h-9.067" transform="translate(-145.074 -47.961)" fill="none" stroke="#143332" stroke-linecap="round" stroke-linejoin="round" stroke-width="1"/>
      <path id="Path_53" data-name="Path 53" d="M551.955,198.614h3.487a3.487,3.487,0,0,1,3.487,3.487h0a3.487,3.487,0,0,0,3.487,3.487h11.246" transform="translate(-152.533 -54.886)" fill="none" stroke="#143332" stroke-linecap="round" stroke-linejoin="round" stroke-width="1"/>
      <path id="Path_54" data-name="Path 54" d="M548.106,234.506h8.37a6.975,6.975,0,0,0,6.25-3.874,5.584,5.584,0,0,1,5-3.1h6.782" transform="translate(-151.469 -62.877)" fill="none" stroke="#143332" stroke-linecap="round" stroke-linejoin="round" stroke-width="1"/>
      <path id="Path_55" data-name="Path 55" d="M567.5,217.893h-4.186a5.58,5.58,0,0,0-5.58,5.58" transform="translate(-154.131 -60.214)" fill="none" stroke="#143332" stroke-linecap="round" stroke-linejoin="round" stroke-width="1"/>
      <line id="Line_31" data-name="Line 31" y2="7.369" transform="translate(399.422 192.553)" fill="none" stroke="#143332" stroke-linecap="round" stroke-linejoin="round" stroke-width="1"/>
      <line id="Line_32" data-name="Line 32" y2="5.58" transform="translate(399.752 124.198)" fill="none" stroke="#143332" stroke-linecap="round" stroke-linejoin="round" stroke-width="1"/>
      <path id="Path_56" data-name="Path 56" d="M555.4,258.376a5.581,5.581,0,0,1-11.162,0" transform="translate(-150.401 -71.401)" fill="none" stroke="#143332" stroke-linecap="round" stroke-linejoin="round" stroke-width="1"/>
      <path id="Path_57" data-name="Path 57" d="M567.3,246.809h-9.765a5.58,5.58,0,0,0-5.58,5.58" transform="translate(-152.533 -68.205)" fill="none" stroke="#143332" stroke-linecap="round" stroke-linejoin="round" stroke-width="1"/>
      <line id="Line_33" data-name="Line 33" x1="4.186" transform="translate(385.471 179.999)" fill="none" stroke="#143332" stroke-linecap="round" stroke-linejoin="round" stroke-width="1"/>
      <path id="Path_58" data-name="Path 58" d="M490.263,179.129v.7a4.89,4.89,0,1,0,9.765,0,6.278,6.278,0,0,1,6.278-6.278h9.067" transform="translate(-135.482 -47.961)" fill="none" stroke="#143332" stroke-linecap="round" stroke-linejoin="round" stroke-width="1"/>
      <path id="Path_59" data-name="Path 59" d="M489.688,198.614H486.2a3.487,3.487,0,0,0-3.487,3.487,3.489,3.489,0,0,1-3.489,3.489H467.98" transform="translate(-129.326 -54.886)" fill="none" stroke="#143332" stroke-linecap="round" stroke-linejoin="round" stroke-width="1"/>
      <path id="Path_60" data-name="Path 60" d="M491.749,234.506h-8.373a6.977,6.977,0,0,1-6.251-3.874,5.585,5.585,0,0,0-5-3.1h-6.783" transform="translate(-128.597 -62.877)" fill="none" stroke="#143332" stroke-linecap="round" stroke-linejoin="round" stroke-width="1"/>
      <path id="Path_61" data-name="Path 61" d="M478.7,217.893h4.186a5.579,5.579,0,0,1,5.577,5.58" transform="translate(-132.289 -60.214)" fill="none" stroke="#143332" stroke-linecap="round" stroke-linejoin="round" stroke-width="1"/>
      <line id="Line_34" data-name="Line 34" y2="7.369" transform="translate(360.362 192.553)" fill="none" stroke="#143332" stroke-linecap="round" stroke-linejoin="round" stroke-width="1"/>
      <line id="Line_35" data-name="Line 35" y2="5.58" transform="translate(360.032 124.198)" fill="none" stroke="#143332" stroke-linecap="round" stroke-linejoin="round" stroke-width="1"/>
      <path id="Path_62" data-name="Path 62" d="M490.266,258.376a5.58,5.58,0,0,0,11.161,0" transform="translate(-135.485 -71.401)" fill="none" stroke="#143332" stroke-linecap="round" stroke-linejoin="round" stroke-width="1"/>
      <path id="Path_63" data-name="Path 63" d="M476.773,246.809h9.765a5.58,5.58,0,0,1,5.58,5.58" transform="translate(-131.756 -68.205)" fill="none" stroke="#143332" stroke-linecap="round" stroke-linejoin="round" stroke-width="1"/>
      <line id="Line_36" data-name="Line 36" x2="4.184" transform="translate(370.126 179.999)" fill="none" stroke="#143332" stroke-linecap="round" stroke-linejoin="round" stroke-width="1"/>
      <path id="Path_64" data-name="Path 64" d="M244.214,395.955a4.789,4.789,0,0,1-4.79,4.79H175.106a4.789,4.789,0,0,1-4.79-4.79V319.323a4.789,4.789,0,0,1,4.79-4.79h44.473l24.634,24.634Z" transform="translate(-47.067 -86.92)" fill="#d4e5b0"/>
      <path id="Path_65" data-name="Path 65" d="M244.214,395.955a4.789,4.789,0,0,1-4.79,4.79H175.106a4.789,4.789,0,0,1-4.79-4.79V319.323a4.789,4.789,0,0,1,4.79-4.79h44.473l24.634,24.634Z" transform="translate(-47.067 -86.92)" fill="none" stroke="#143332" stroke-width="1"/>
      <path id="Path_66" data-name="Path 66" d="M238.393,314.533v24.635h24.634Z" transform="translate(-65.88 -86.92)" fill="#146764"/>
      <path id="Path_67" data-name="Path 67" d="M238.393,314.533v24.635h24.634Z" transform="translate(-65.88 -86.92)" fill="none" stroke="#143332" stroke-linecap="round" stroke-linejoin="round" stroke-width="1"/>
      <line id="Line_37" data-name="Line 37" x2="24.635" transform="translate(135.407 260.09)" fill="none" stroke="#143332" stroke-linecap="round" stroke-linejoin="round" stroke-width="1"/>
      <line id="Line_38" data-name="Line 38" x2="47.214" transform="translate(135.407 272.405)" fill="none" stroke="#143332" stroke-linecap="round" stroke-linejoin="round" stroke-width="1"/>
      <line id="Line_39" data-name="Line 39" x2="47.214" transform="translate(135.407 284.719)" fill="none" stroke="#143332" stroke-linecap="round" stroke-linejoin="round" stroke-width="1"/>
      <line id="Line_40" data-name="Line 40" y1="0.005" x2="47.214" transform="translate(135.407 297.034)" fill="none" stroke="#143332" stroke-linecap="round" stroke-linejoin="round" stroke-width="1"/>
      <path id="Path_68" data-name="Path 68" d="M199.738,737.435a88.058,88.058,0,1,0,0-.025v.025" transform="translate(-55.198 -179.451)" fill="#146764"/>
      <path id="Path_69" data-name="Path 69" d="M351.2,761.858c10.88-.452-8.14-29.553-8.14-33.844,0-25.583-24.975-39.1-46.9-39.1a47.873,47.873,0,0,0-47.875,47.872v0c0,15.158,4.309,29.064,17.13,38.131a1.918,1.918,0,0,1,.811,1.559v23.613a69.5,69.5,0,0,0,51.49,3.769V789.518a1.915,1.915,0,0,1,1.916-1.915h10.358c7.177,0,13.471-4.469,13.471-11.646V763.815a1.916,1.916,0,0,1,1.916-1.916h.027c1.606.025,3.9.037,5.8-.041" transform="translate(-68.612 -190.38)" fill="#d4e5b0"/>
      <path id="Path_70" data-name="Path 70" d="M317.711,803.86V789.517a1.915,1.915,0,0,1,1.915-1.915h10.358c7.177,0,13.471-4.469,13.471-11.646V763.814a1.914,1.914,0,0,1,1.915-1.915h.028c1.6.025,3.9.036,5.8-.041,10.881-.452-8.14-29.553-8.14-33.845,0-25.583-24.975-39.1-46.9-39.1a47.875,47.875,0,0,0-47.876,47.872h0c0,15.158,4.309,29.065,17.13,38.131a1.917,1.917,0,0,1,.81,1.559v23.614" transform="translate(-68.612 -190.38)" fill="#d4e5b0"/>
      <path id="Path_71" data-name="Path 71" d="M759.487,349.549l5.041,5.039-3.95,3.952-5.041-5.039a30.749,30.749,0,1,1,3.95-3.952" transform="translate(-194.86 -82.665)" fill="#d4e5b0"/>
      <path id="Path_72" data-name="Path 72" d="M759.487,349.549l5.041,5.039-3.95,3.952-5.041-5.039a30.749,30.749,0,1,1,3.95-3.952Z" transform="translate(-194.86 -82.665)" fill="none" stroke="#143332" stroke-linecap="round" stroke-linejoin="round" stroke-width="1"/>
      <path id="Path_73" data-name="Path 73" d="M804.082,390.194a5.59,5.59,0,0,1-7.9,7.9L780.762,382.69a2.022,2.022,0,0,1,0-2.859l5.054-5.047a2.021,2.021,0,0,1,2.858,0Z" transform="translate(-215.6 -103.407)" fill="#146764"/>
      <path id="Path_74" data-name="Path 74" d="M804.082,390.194a5.59,5.59,0,0,1-7.9,7.9L780.762,382.69a2.022,2.022,0,0,1,0-2.859l5.054-5.047a2.021,2.021,0,0,1,2.858,0Z" transform="translate(-215.6 -103.407)" fill="none" stroke="#143332" stroke-linecap="round" stroke-linejoin="round" stroke-width="1"/>
      <path id="Path_75" data-name="Path 75" d="M762.4,332.412a24.11,24.11,0,1,0,0,.011Z" transform="translate(-197.368 -85.201)" fill="#fff"/>
      <path id="Path_76" data-name="Path 76" d="M762.4,332.412a24.11,24.11,0,1,0,0,.011Z" transform="translate(-197.368 -85.201)" fill="none" stroke="#143332" stroke-linecap="round" stroke-linejoin="round" stroke-width="1"/>
      <path id="Path_77" data-name="Path 77" d="M329.51,723.634c-.507-7-5.2-12.467-10.909-12.467a11.152,11.152,0,0,0-1.174.059,17.968,17.968,0,0,0-15.279-9.855,17.507,17.507,0,0,0-14.228,8.135,6.62,6.62,0,0,0-3.806-1.276,8.267,8.267,0,0,0-7.447,6.862c-6.294.263-11.354,6.718-11.354,14.653a18.216,18.216,0,0,0,.831,5.443,9.419,9.419,0,0,0,8.8,6.821h8.582v7.933a8.1,8.1,0,0,0,8.095-7.933H327.41a8.02,8.02,0,0,0,7.645-8.339,10.927,10.927,0,0,0-5.545-10.037" transform="translate(-73.319 -193.823)" fill="#146764"/>
      <path id="Path_78" data-name="Path 78" d="M313.358,745.815c-3.209,2.277-3.911,5.361-5.431,8.467" transform="translate(-85.096 -206.105)" fill="none" stroke="#143332" stroke-linecap="round" stroke-linejoin="round" stroke-width="1"/>
      <path id="Path_79" data-name="Path 79" d="M293.434,747.353a9.664,9.664,0,0,1-2.913,7.354" transform="translate(-80.286 -206.53)" fill="none" stroke="#143332" stroke-linecap="round" stroke-linejoin="round" stroke-width="1"/>
      <path id="Path_80" data-name="Path 80" d="M302.528,736.534c-1.555,4.322-3.787,7.83-7.051,7.83a8.962,8.962,0,0,1-3.233-.572" transform="translate(-80.762 -203.54)" fill="none" stroke="#143332" stroke-linecap="round" stroke-linejoin="round" stroke-width="1"/>
      <path id="Path_81" data-name="Path 81" d="M324.1,720.321A14.337,14.337,0,0,1,333.682,715" transform="translate(-89.565 -197.589)" fill="none" stroke="#143332" stroke-linecap="round" stroke-linejoin="round" stroke-width="1"/>
      <path id="Path_82" data-name="Path 82" d="M329.248,741.945a10.349,10.349,0,0,0-1.764,11.253" transform="translate(-90.243 -205.035)" fill="none" stroke="#143332" stroke-linecap="round" stroke-linejoin="round" stroke-width="1"/>
      <path id="Path_83" data-name="Path 83" d="M343.071,731.043a9.418,9.418,0,0,1,7.93.616" transform="translate(-94.808 -201.857)" fill="none" stroke="#143332" stroke-linecap="round" stroke-linejoin="round" stroke-width="1"/>
      <path id="Path_84" data-name="Path 84" d="M343.89,743.7s-1.634-1.713-6.27,0a6.43,6.43,0,0,1-7.834-2.937,9.1,9.1,0,0,1-1.283-3.084" transform="translate(-90.782 -203.857)" fill="none" stroke="#143332" stroke-linecap="round" stroke-linejoin="round" stroke-width="1"/>
      <path id="Path_85" data-name="Path 85" d="M278.315,730.9c4.107-6.606,8.627.138,14.1-4.893,3.722-3.426,3.526-10.888-.892-13.4" transform="translate(-76.912 -196.93)" fill="none" stroke="#143332" stroke-linecap="round" stroke-linejoin="round" stroke-width="1"/>
      <path id="Path_86" data-name="Path 86" d="M313.085,715.045a6.9,6.9,0,0,1,7.836,4.893,11.547,11.547,0,0,1,.588,5.089" transform="translate(-86.521 -197.572)" fill="none" stroke="#143332" stroke-linecap="round" stroke-linejoin="round" stroke-width="1"/>
      <path id="Path_87" data-name="Path 87" d="M329.51,723.634c-.507-7-5.2-12.467-10.909-12.467a11.152,11.152,0,0,0-1.174.059,17.968,17.968,0,0,0-15.279-9.855,17.507,17.507,0,0,0-14.228,8.135,6.62,6.62,0,0,0-3.806-1.276,8.267,8.267,0,0,0-7.447,6.862c-6.294.263-11.354,6.718-11.354,14.653a18.216,18.216,0,0,0,.831,5.443,9.419,9.419,0,0,0,8.8,6.821h8.582v7.933a8.1,8.1,0,0,0,8.095-7.933H327.41a8.02,8.02,0,0,0,7.645-8.339A10.927,10.927,0,0,0,329.51,723.634Z" transform="translate(-73.319 -193.823)" fill="none" stroke="#143332" stroke-linecap="round" stroke-linejoin="round" stroke-width="1"/>
    </g>
  </g>
</svg>
