<svg id="Camada_1" data-name="Camada 1" xmlns="http://www.w3.org/2000/svg" viewBox="0 0 353.98 453.54"><defs><style>.cls-1{fill:#f07f3c;}.cls-2{fill:#9d9d9c;}.cls-3{fill:#706f6f;}.cls-10,.cls-11,.cls-12,.cls-13,.cls-14,.cls-15,.cls-4,.cls-5,.cls-6,.cls-7,.cls-8,.cls-9{fill:#2d2b55;}.cls-10,.cls-11,.cls-12,.cls-13,.cls-14,.cls-4,.cls-5,.cls-6,.cls-7,.cls-8,.cls-9{stroke:#2d2b55;stroke-miterlimit:10;}.cls-4{stroke-width:2.21px;}.cls-5{stroke-width:2.13px;}.cls-6{stroke-width:1.84px;}.cls-7{stroke-width:2.13px;}.cls-8{stroke-width:2.13px;}.cls-9{stroke-width:2.13px;}.cls-10{stroke-width:1.84px;}.cls-11{stroke-width:2.21px;}.cls-12{stroke-width:1.84px;}.cls-13{stroke-width:2.13px;}.cls-14{stroke-width:1.84px;}.cls-16{fill:#2e2c56;}</style></defs><title>logo principal</title><path class="cls-1" d="M235.08,425.46a36.86,36.86,0,0,1,3-24,33.38,33.38,0,0,1,25.09-18.07c3.82-.51,5.81-.66,8.32-.85,1.41-.11,3-.23,5.24-.44,9.09-.84,10-4.11,10.59-6.5s.39-5.28.13-8c-.35-3.68-.68-7.16,1.38-9.81a7.83,7.83,0,0,1,3.7-2.35c1.67-.64,1.78-.68,1.69-1.62-.79-.56-3.48-.93-4.8-1.11-.67-.09-1.32-.18-1.9-.28a30,30,0,0,1-7.72-2.36c-1.26-.52-2.69-1.13-4.75-1.85a3.36,3.36,0,0,1-2.41-3.76c.49-2.83,3.23-2.9,5.89-3,1.69,0,3.86,0,6,0,2.45,0,5.23,0,6.1-.06,4.16-.43,6.26-.81,7.6-1.43,0-.44.05-1.07.07-1.64a61.72,61.72,0,0,1,1.45-12.62l6.24,1.32a55.79,55.79,0,0,0-1.31,11.45c-.07,2.65-.12,5.17-2.57,6.65A18.11,18.11,0,0,1,295,347.3c2.71.83,5.19,2.39,5.53,5.65.61,6-3.85,7.72-5.75,8.45-.32.12-.77.29-1,.41-.41.81-.17,3.32,0,5.17.3,3.12.64,6.65-.31,10.24-1.85,7-6.68,10.34-16.17,11.22-2.28.21-3.91.33-5.34.44-2.52.19-4.33.33-8,.81a27,27,0,0,0-20.25,14.67,30.33,30.33,0,0,0-2.41,19.81Zm58.62-63.6Z"/><g id="Original"><path class="cls-1" d="M310.83,331.84c-3.63,0-8.09-1.36-10.06-3-.42-.36-.78-.73-1.13-1.09-1.23-1.28-1.85-1.92-4.23-1.3-8.94,2.3-15.57.47-17.31-4.79-1.53-4.62,1.33-9.53,8.06-13.81l3.43,5.39c-3.62,2.3-5.9,5-5.43,6.42s4.28,2,9.66.6c6-1.54,8.87,1.45,10.41,3.06.23.23.43.45.64.62,1.06.87,5.53,1.9,7,1.44a6.79,6.79,0,0,0,4.56-4.84c.18-1.22.64-4.49-3.91-11.65-5.45-8.57-11.94-38-13.18-43.77-2.14-10,2.46-31.72,2.66-32.64l.45-2.09c.59-3.38,1.2-6.24,1.71-8.62.79-3.72,1.62-7.56,1.05-8.38,0-.06-.47-.6-3.08-1l-239.47-.68-.63-.29c-20.59-9.53-30.93-22.17-30.72-37.56.5-36.18,33.34-41.56,42.5-42.36,2-5.64,8.59-20.48,23.53-27.25,16.85-7.65,29.85-6.18,35.94-4.7a108.23,108.23,0,0,1,13.52-33.74c10.69-17.19,31.32-37.68,68.94-37.68,35.6,0,63.39,13.76,80.37,39.78a108.4,108.4,0,0,1,16.36,46.71l-6.36.55c-.71-8.25-9.33-80.65-90.37-80.65-27.77,0-49.1,11.6-63.4,34.48a100.6,100.6,0,0,0-13.4,35.1l-.59,4.17-3.86-1.69c-.12,0-14.1-5.79-34.52,3.48-15.47,7-20.68,25.16-20.73,25.35l-.65,2.32-2.41,0c-1.55,0-38,.66-38.48,36.2-.18,12.49,8.7,23,26.38,31.38l238.58.67.25,0c2.77.45,5.84,1.25,7.57,3.78,2.11,3.09,1.29,6.94-.08,13.33-.6,2.82-1.36,6.33-2,10.54l-.43,2.69h-.21c-1.39,7.24-3.51,21.1-2.15,27.44,2.68,12.5,8.29,35.34,12.32,41.68,5.22,8.21,5.27,13.05,4.85,16a13.08,13.08,0,0,1-8.92,10A10,10,0,0,1,310.83,331.84Z"/></g><path class="cls-2" d="M305.12,111.58a111.58,111.58,0,0,1-26-3.23c-8.1-2-18.88-5.83-24.28-12.49l1.65-1.34c8.9,11,36.31,15.68,52.67,14.83l.11,2.13C307.92,111.55,306.54,111.58,305.12,111.58Z"/><path class="cls-2" d="M239.05,147.5,237.51,146c20.82-22,51.7-34.42,71.57-36.67l.24,2.11C289.82,113.68,259.51,125.9,239.05,147.5Z"/><path class="cls-3" d="M48.66,199.33l-1-3c18-5.67,60.3-18.94,73.06-40.58l2.74,1.62C110.13,180,67.05,193.56,48.66,199.33Z"/><path class="cls-2" d="M187.05,118.19c-2.39-18.11,11.62-40.15,28.82-45.36l.62,2c-16,4.86-29.56,26.18-27.33,43.05Z"/><path class="cls-2" d="M170.79,122.85a49,49,0,0,1-18.4-3.63c-8.86-3.59-15.45-9.29-17.64-15.24l2-.74c2,5.4,8.14,10.64,16.45,14,11.57,4.7,24.45,4.64,34.45-.16l.92,1.92A41.19,41.19,0,0,1,170.79,122.85Z"/><path class="cls-2" d="M189.08,118.48l-2-.86c5.66-13,45.51-23.5,68.52-23.5v2.13C233.71,96.25,194.34,106.42,189.08,118.48Z"/><path class="cls-2" d="M252.29,96.79c-12,0-33.64-14.36-37.09-22.53l2-.83c1.7,4,8.72,10.18,17.06,14.95,9,5.12,17,7.35,21.06,5.81l.75,2A10.41,10.41,0,0,1,252.29,96.79Z"/><path class="cls-3" d="M217.74,74.21l-3.11-.73c6.26-26.56,21.64-33.21,36.85-37.73l.91,3.06C237.48,43.24,223.61,49.29,217.74,74.21Z"/><path class="cls-2" d="M154.82,171.52a50.87,50.87,0,0,1-5.09-.25c-11.76-1.14-21.85-6.14-28.42-14.08l1.64-1.35c11.06,13.35,36.46,19.31,56.64,6.89l1.11,1.82A50,50,0,0,1,154.82,171.52Z"/><path class="cls-2" d="M175.62,168.49l-1.41-1.59c13.54-12.07,44.24-26.55,64.34-21.16l-.55,2C218.61,142.59,188.81,156.73,175.62,168.49Z"/><path class="cls-2" d="M237.22,146.81c-.87-19.56,6.25-42.33,16.94-54.13l1.57,1.43c-10.34,11.43-17.23,33.55-16.39,52.61Z"/><path class="cls-2" d="M175.67,168.45l-1.51-1.51c4.49-4.49,19.85-25.89,12.92-48.58l2-.62C196.35,141.44,180.35,163.77,175.67,168.45Z"/><path class="cls-2" d="M238.13,147.82c-20.93-3-38.52-13-50.87-29.12l1.68-1.3c12,15.63,29.12,25.41,49.49,28.31Z"/><path class="cls-2" d="M121.07,156.53c-.17-19.69,1.8-36.72,12-55.81l1.88,1c-10,18.7-11.91,35.43-11.75,54.79Z"/><path class="cls-3" d="M134.71,102.65l-1.41-2.86c18.2-9,36.69-31.84,36.14-54.67l3.19-.07C173.22,69.16,153.81,93.27,134.71,102.65Z"/><path class="cls-3" d="M186.91,119.11c-15.33-17.32-17.46-45.81-17.47-74h3.19c0,27.58,2,55.38,16.67,71.9Z"/><path class="cls-3" d="M215.74,75.38c-26-7.56-37.16-17.21-46-29.36l2.58-1.87c8.69,12,19.13,20.83,44.3,28.16Z"/><path class="cls-3" d="M182.27,47c-3.8,0-7.59-.09-11.33-.31l.19-3.19c37.15,2.17,80-7.67,80.44-7.77l.72,3.11C251.9,38.92,216.73,47,182.27,47Z"/><path class="cls-3" d="M78.76,131l-.63-3.13,1.33-.26c25.45-5.16,39.47-8,55.11-25.11l2.35,2.16c-16.34,17.88-30.72,20.79-56.83,26.07Z"/><path class="cls-3" d="M121.57,158c-.11,0-11.12-4.15-22-9.54-15.3-7.58-22.73-13.8-22.73-19H80c0,1.73,2,6.77,21,16.14,10.72,5.31,21.58,9.37,21.69,9.41Z"/><path class="cls-3" d="M49.43,198.8l-2.51-2c14.51-18.49,29.93-48.37,29.93-67.36H80C80,144.54,69.53,173.2,49.43,198.8Z"/><path class="cls-3" d="M129.2,208.39,126,208c2.43-17.64-5.38-50.73-5.46-51.06l3.1-.74C124,157.53,131.71,190.16,129.2,208.39Z"/><path class="cls-3" d="M126.58,209.37c-20.52-17.83-51-15.06-78.11-10l-.58-3.14c27.85-5.21,59.24-8,80.78,10.73Z"/><path class="cls-3" d="M129.19,208.48l-3.13-.61c6.44-33.12,37.7-40.24,50.84-41.76l.36,3.17C141.26,173.45,131.69,195.63,129.19,208.48Z"/><path class="cls-3" d="M208.12,209.28l-2.88-1.39c10.44-21.67,69.95-29.69,84.07-29.27l-.1,3.19C272.56,181.29,217.29,190.22,208.12,209.28Z"/><path class="cls-3" d="M208.27,208.59h-3.19c0-14.87,14.75-49.78,32.23-63.1l1.93,2.54C222.75,160.6,208.27,194.66,208.27,208.59Z"/><path class="cls-3" d="M208.27,208.59h-3.19c0-5.81-3.58-15.22-8.7-22.88-3.67-5.47-11.36-14.89-21.7-16.44l.47-3.15c8.57,1.28,17,7.61,23.88,17.81C204.56,192.2,208.27,202.11,208.27,208.59Z"/><path class="cls-3" d="M290.86,180.22h-3.2c0-14.84,3.69-56.52,20.5-71l2.08,2.41c-6.46,5.57-11.73,16.72-15.24,32.23A178.05,178.05,0,0,0,290.86,180.22Z"/><path class="cls-2" d="M288.4,180.84c-19-26.42-37.84-57.77-33.8-90.06l2.11.26c-3.95,31.56,14.68,62.48,33.41,88.56Z"/><path class="cls-3" d="M288,181.24c-13.71-16.31-35.77-33.38-49.71-32.88l-.11-3.19c9.13-.33,19.81,5.76,27.16,10.92a137.2,137.2,0,0,1,25.1,23.1Z"/><path class="cls-3" d="M308.23,111.68c-25.4-19.36-47-46.95-57.78-73.81l3-1.19C264,63,285.2,90.11,310.17,109.15Z"/><path class="cls-3" d="M254.27,91.7c-9.84-17.38-11.26-38-3.8-55.06l2.92,1.28c-7.06,16.18-5.69,35.7,3.65,52.2Z"/><path class="cls-2" d="M174.67,168.73c-9.29-2.2-19.84-11.87-28.24-25.86-8.08-13.46-12.5-28.21-11.54-38.51l2.12.2c-1.87,20,18.63,57.47,38.15,62.1Z"/><path class="cls-2" d="M126.22,157.73q-2.09,0-4.17-.15l.16-2.12c28.86,2.11,59.8-19,64.86-37.69l2.06.56C184.1,136.92,154.78,157.73,126.22,157.73Z"/><path class="cls-2" d="M237.77,147.7c-17.5-9.41-35.07-45.55-22.56-74.28l1.95.85c-5.34,12.26-5.35,27.3,0,42.37,4.7,13.35,13,24.53,21.66,29.19Z"/><circle class="cls-4" cx="188.1" cy="118.05" r="5.23"/><circle class="cls-5" cx="48.18" cy="197.81" r="6.03"/><circle class="cls-6" cx="238.28" cy="146.76" r="5.23"/><circle class="cls-7" cx="289.26" cy="180.22" r="6.03"/><circle class="cls-8" cx="135.74" cy="103.61" r="6.03"/><circle class="cls-9" cx="78.44" cy="129.47" r="6.03"/><circle class="cls-10" cx="174.92" cy="167.7" r="5.23"/><circle class="cls-11" cx="122.13" cy="156.52" r="5.23"/><circle class="cls-12" cx="216.18" cy="73.85" r="5.23"/><circle class="cls-13" cx="251.93" cy="37.28" r="6.03"/><circle class="cls-14" cx="255.65" cy="95.19" r="5.23"/><circle class="cls-8" cx="309.1" cy="110.1" r="6.03"/><circle class="cls-8" cx="127.62" cy="208.17" r="6.03"/><circle class="cls-8" cx="206.68" cy="208.59" r="6.03"/><circle class="cls-8" cx="171.04" cy="45.09" r="6.03"/><path class="cls-15" d="M46.11,233.52l-.23,1.69h-9.5v8.61h8.21v1.69H36.38V255h10v1.69h-12V233.52Z"/><path class="cls-15" d="M62.61,240a5.78,5.78,0,0,1,1.27,4v12.63h-2V244.3a4.66,4.66,0,0,0-.85-3.11,3.11,3.11,0,0,0-2.49-1,5,5,0,0,0-3,.93,10.09,10.09,0,0,0-2.49,2.72v12.8h-2V239h1.69l.21,3a8.26,8.26,0,0,1,2.56-2.48,6.34,6.34,0,0,1,3.35-.9A4.66,4.66,0,0,1,62.61,240Z"/><path class="cls-15" d="M84,239.37a21.84,21.84,0,0,1-4.9.5,4.92,4.92,0,0,1,3,4.8,5.49,5.49,0,0,1-1.72,4.2,6.59,6.59,0,0,1-4.67,1.61,6.9,6.9,0,0,1-2.29-.34,3,3,0,0,0-1,.9,1.93,1.93,0,0,0-.35,1.13c0,1.21.93,1.82,2.8,1.82h2.87a6.3,6.3,0,0,1,4.14,1.27,4,4,0,0,1,1.54,3.26,4.29,4.29,0,0,1-1.93,3.75,10.2,10.2,0,0,1-5.74,1.31c-2.64,0-4.52-.4-5.66-1.19a4.4,4.4,0,0,1-1.71-3.87h1.83a3.67,3.67,0,0,0,.54,2,2.93,2.93,0,0,0,1.69,1.09,12.92,12.92,0,0,0,3.31.33,8.23,8.23,0,0,0,4.32-.86,2.76,2.76,0,0,0,1.35-2.48,2.54,2.54,0,0,0-1-2.18,4.92,4.92,0,0,0-2.94-.76H74.59a5.13,5.13,0,0,1-3.23-.88,2.71,2.71,0,0,1-1.13-2.23,3,3,0,0,1,.51-1.65,4.46,4.46,0,0,1,1.41-1.35,5.37,5.37,0,0,1-2.24-2A6.22,6.22,0,0,1,71,240.28a6.66,6.66,0,0,1,4.7-1.66,26.57,26.57,0,0,0,4.68-.23,15.87,15.87,0,0,0,3.05-.92Zm-11.67,2a4.54,4.54,0,0,0-1.13,3.24,4.12,4.12,0,0,0,4.46,4.46,4,4,0,0,0,4.46-4.42A4.56,4.56,0,0,0,79,241.33a4.37,4.37,0,0,0-3.32-1.19A4.32,4.32,0,0,0,72.34,241.36Z"/><path class="cls-15" d="M99.89,248.59H88.1a8.19,8.19,0,0,0,1.64,5.11,4.86,4.86,0,0,0,3.86,1.68,6.42,6.42,0,0,0,2.45-.43,10.73,10.73,0,0,0,2.32-1.33l.91,1.25a10.09,10.09,0,0,1-2.7,1.62,8.44,8.44,0,0,1-3.08.54,6.75,6.75,0,0,1-5.5-2.4A10.09,10.09,0,0,1,86,248a13.06,13.06,0,0,1,.86-4.92,7.45,7.45,0,0,1,2.47-3.27,6.77,6.77,0,0,1,8.87,1.11,10,10,0,0,1,1.75,6.27C100,247.66,99.93,248.14,99.89,248.59Zm-1.86-2a7.62,7.62,0,0,0-1.24-4.64,4.24,4.24,0,0,0-3.66-1.68,4.35,4.35,0,0,0-3.55,1.69,8.73,8.73,0,0,0-1.48,5.14H98Z"/><path class="cls-15" d="M117,240a5.78,5.78,0,0,1,1.27,4v12.63h-2V244.3a4.72,4.72,0,0,0-.84-3.11,3.15,3.15,0,0,0-2.5-1,5,5,0,0,0-3,.93,9.91,9.91,0,0,0-2.48,2.72v12.8h-2V239h1.68l.21,3a8.26,8.26,0,0,1,2.56-2.48,6.37,6.37,0,0,1,3.35-.9A4.66,4.66,0,0,1,117,240Z"/><path class="cls-15" d="M136.7,240.06a5.73,5.73,0,0,1,1.29,4v12.63h-2V244.3q0-4.1-3.35-4.09a5,5,0,0,0-3,.93,10.23,10.23,0,0,0-2.48,2.72v12.8h-2V231.8l2-.24v10.37a7,7,0,0,1,5.84-3.31A4.62,4.62,0,0,1,136.7,240.06Z"/><path class="cls-15" d="M156.31,254.73a2.19,2.19,0,0,0,1.13.92L157,257a3.47,3.47,0,0,1-1.87-.91,3.61,3.61,0,0,1-.86-2.06,6,6,0,0,1-5.51,3,5.5,5.5,0,0,1-4-1.43,5.13,5.13,0,0,1-1.47-3.84,5,5,0,0,1,1.94-4.22,8.7,8.7,0,0,1,5.39-1.49H154v-1.72a3.48,3.48,0,0,0-4.09-4.05,14.48,14.48,0,0,0-4.8,1l-.5-1.48a15.1,15.1,0,0,1,5.57-1.19q5.77,0,5.78,5.61v8.51A4.08,4.08,0,0,0,156.31,254.73ZM154,252.34v-4.87h-3.08a6.87,6.87,0,0,0-4.12,1.05,3.68,3.68,0,0,0-1.42,3.14,3.79,3.79,0,0,0,1,2.8,3.69,3.69,0,0,0,2.74,1A5.37,5.37,0,0,0,154,252.34Z"/><path class="cls-15" d="M171.7,238.83l-.38,1.85a6,6,0,0,0-1.55-.2,3.59,3.59,0,0,0-2.89,1.3,10.84,10.84,0,0,0-1.84,4.07v10.81h-2V239h1.69l.17,4a7,7,0,0,1,1.94-3.26,4.51,4.51,0,0,1,3.06-1.07A6.33,6.33,0,0,1,171.7,238.83Z"/><path class="cls-15" d="M177.71,231.63a1.49,1.49,0,0,1,0,2,1.46,1.46,0,0,1-1.08.4,1.42,1.42,0,0,1-1-.4,1.46,1.46,0,0,1,0-2,1.42,1.42,0,0,1,1-.4A1.46,1.46,0,0,1,177.71,231.63Zm-.07,7.36v17.67h-2V239Z"/><path class="cls-15" d="M196.13,254.73a2.22,2.22,0,0,0,1.14.92l-.44,1.38a3.51,3.51,0,0,1-1.88-.91,3.61,3.61,0,0,1-.86-2.06,6,6,0,0,1-5.51,3,5.5,5.5,0,0,1-4-1.43,5.13,5.13,0,0,1-1.47-3.84,5,5,0,0,1,1.94-4.22,8.7,8.7,0,0,1,5.39-1.49h3.38v-1.72a3.48,3.48,0,0,0-4.09-4.05,14.38,14.38,0,0,0-4.79,1l-.51-1.48a15.1,15.1,0,0,1,5.57-1.19q5.77,0,5.78,5.61v8.51A4.2,4.2,0,0,0,196.13,254.73Zm-2.31-2.39v-4.87h-3.07a6.88,6.88,0,0,0-4.13,1.05,3.67,3.67,0,0,0-1.41,3.14,3.75,3.75,0,0,0,1,2.8,3.65,3.65,0,0,0,2.73,1A5.36,5.36,0,0,0,193.82,252.34Z"/><path class="cls-15" d="M224.93,231.8v24.86h-1.69L223,254a5.8,5.8,0,0,1-5.3,3.07,5.65,5.65,0,0,1-4.85-2.45,11.16,11.16,0,0,1-1.77-6.67,12.94,12.94,0,0,1,.83-4.83,7.37,7.37,0,0,1,2.39-3.27,6,6,0,0,1,3.7-1.19,6.14,6.14,0,0,1,5,2.4v-9.46Zm-4.07,22.8a7.42,7.42,0,0,0,2.11-2.47v-9.22a5.55,5.55,0,0,0-4.63-2.67,4.41,4.41,0,0,0-3.8,2,9.61,9.61,0,0,0-1.37,5.64,10.11,10.11,0,0,0,1.29,5.59,4,4,0,0,0,3.54,1.94A4.89,4.89,0,0,0,220.86,254.6Z"/><path class="cls-15" d="M244.55,248.59H232.76a8.25,8.25,0,0,0,1.64,5.11,4.89,4.89,0,0,0,3.87,1.68,6.45,6.45,0,0,0,2.45-.43,10.46,10.46,0,0,0,2.31-1.33l.91,1.25a9.93,9.93,0,0,1-2.7,1.62,8.39,8.39,0,0,1-3.07.54,6.78,6.78,0,0,1-5.51-2.4,10.09,10.09,0,0,1-2-6.65,13.06,13.06,0,0,1,.86-4.92,7.38,7.38,0,0,1,2.47-3.27,6.16,6.16,0,0,1,3.73-1.17,6.08,6.08,0,0,1,5.13,2.28,10,10,0,0,1,1.76,6.27A13,13,0,0,1,244.55,248.59Zm-1.86-2a7.68,7.68,0,0,0-1.23-4.64,4.24,4.24,0,0,0-3.66-1.68,4.34,4.34,0,0,0-3.55,1.69,8.73,8.73,0,0,0-1.49,5.14h9.93Z"/><path class="cls-15" d="M49.27,331.25a14.36,14.36,0,0,1,3.85,2.43l-2.88,3.38a8,8,0,0,0-5.18-2.12,5.47,5.47,0,0,0-4.82,2.75q-1.76,2.74-1.75,8.92t1.75,8.82a5.5,5.5,0,0,0,4.87,2.8,6.35,6.35,0,0,0,2.84-.61,16.54,16.54,0,0,0,2.7-1.78l2.79,3.33a13.26,13.26,0,0,1-3.74,2.68,10.84,10.84,0,0,1-4.86,1.06,11.22,11.22,0,0,1-10.92-7.32,23,23,0,0,1-1.56-9A21.84,21.84,0,0,1,34,337.73a12.35,12.35,0,0,1,4.42-5.47,11.4,11.4,0,0,1,6.35-1.82A11.72,11.72,0,0,1,49.27,331.25Z"/><path class="cls-15" d="M72.49,341q2.7,3.24,2.7,9.32c0,3.9-.9,7-2.72,9.23a9.13,9.13,0,0,1-7.5,3.38,9.21,9.21,0,0,1-7.54-3.31q-2.73-3.32-2.73-9.3t2.73-9.23A9.18,9.18,0,0,1,65,337.73,9.23,9.23,0,0,1,72.49,341Zm-10.81,3q-1.08,2-1.08,6.33c0,2.94.36,5.07,1.08,6.37a3.73,3.73,0,0,0,6.58,0q1.08-2,1.08-6.35T68.26,344a3.75,3.75,0,0,0-6.58,0Z"/><path class="cls-15" d="M107.12,339.65a7.78,7.78,0,0,1,1.58,5.11v17.47h-5.58V345.48c0-2.31-.71-3.47-2.12-3.47a3,3,0,0,0-2.07.88,9.78,9.78,0,0,0-1.85,2.59v16.75H91.54V345.48c0-2.31-.7-3.47-2.12-3.47a3,3,0,0,0-2.11.9,9.59,9.59,0,0,0-1.8,2.57v16.75H79.92V338.41h4.91l.41,3.06c1.65-2.49,3.7-3.74,6.17-3.74a5,5,0,0,1,3.19,1.06,6.18,6.18,0,0,1,2,2.95,10.07,10.07,0,0,1,2.81-3,6.32,6.32,0,0,1,3.58-1A5.09,5.09,0,0,1,107.12,339.65Z"/><path class="cls-15" d="M132,341q2,3.27,2,9.25,0,5.78-2.25,9.21a7,7,0,0,1-6.22,3.45,6.58,6.58,0,0,1-5.36-2.57v11l-5.63.63v-33.6h5l.27,2.88a7.54,7.54,0,0,1,6.35-3.56A6.44,6.44,0,0,1,132,341Zm-5,15.63q1.08-2,1.08-6.33c0-3-.32-5.14-.95-6.4a3,3,0,0,0-2.84-1.89c-1.62,0-3,1-4.19,3.11V356.2a4.47,4.47,0,0,0,3.79,2.39A3.41,3.41,0,0,0,127,356.63Z"/><path class="cls-15" d="M156.26,362.23h-4.87l-.31-3.15a8.63,8.63,0,0,1-2.77,2.88,6.94,6.94,0,0,1-3.67,1,5.54,5.54,0,0,1-4.48-1.89,7.61,7.61,0,0,1-1.6-5.09V338.41h5.63v17a4.19,4.19,0,0,0,.56,2.43,2,2,0,0,0,1.78.77q2.34,0,4.1-3.24v-17h5.63Z"/><path class="cls-15" d="M174.9,361.11a8.32,8.32,0,0,1-2.59,1.35,9.5,9.5,0,0,1-2.9.45,6.46,6.46,0,0,1-5-1.89,7.5,7.5,0,0,1-1.74-5.27V342.46h-3.19v-4h3.19v-5.27l5.63-.68v6h5l-.58,4h-4.42V355.7a3.2,3.2,0,0,0,.52,2,2,2,0,0,0,1.64.65,4.66,4.66,0,0,0,2.48-.77Z"/><path class="cls-15" d="M193.86,358.11a2.44,2.44,0,0,0,1.17,1l-1.17,3.74a7.36,7.36,0,0,1-3.13-1,4.57,4.57,0,0,1-1.77-2.39,7.15,7.15,0,0,1-6.4,3.47,6.64,6.64,0,0,1-5.09-2,7.47,7.47,0,0,1-1.89-5.31,7.1,7.1,0,0,1,2.57-5.92c1.71-1.37,4.18-2,7.43-2H188v-1.49a4.58,4.58,0,0,0-.9-3.2,3.88,3.88,0,0,0-2.92-.94,17.82,17.82,0,0,0-5.77,1.21l-1.3-3.74a20.59,20.59,0,0,1,8-1.71q8.46,0,8.46,8.06v10.45A3.77,3.77,0,0,0,193.86,358.11Zm-5.9-2.23v-4.95h-1.8q-4.95,0-4.95,4.23a4.21,4.21,0,0,0,.76,2.73,2.62,2.62,0,0,0,2.12.92C185.74,358.81,187,357.84,188,355.88Z"/><path class="cls-15" d="M209.58,362.86v1.81a5.11,5.11,0,0,1,3.06,1.32,3.8,3.8,0,0,1,1,2.77,4.26,4.26,0,0,1-1.58,3.49,6.33,6.33,0,0,1-4.14,1.29,7.41,7.41,0,0,1-4.32-1.22l1.35-2.66a6.5,6.5,0,0,0,2.57.63,2.27,2.27,0,0,0,1.41-.38,1.32,1.32,0,0,0,.52-1.15,1.4,1.4,0,0,0-.88-1.33,6.91,6.91,0,0,0-2.81-.42l.49-4.33a8.87,8.87,0,0,1-5.94-3.82,14.61,14.61,0,0,1-2.12-8.34,16.86,16.86,0,0,1,1.26-6.77,10,10,0,0,1,3.58-4.46,9.51,9.51,0,0,1,5.43-1.56,10.37,10.37,0,0,1,3.83.68,10.58,10.58,0,0,1,3.24,2.07l-2.48,3.29a6.69,6.69,0,0,0-4.23-1.62,3.84,3.84,0,0,0-3.49,2c-.8,1.3-1.19,3.41-1.19,6.32s.39,4.93,1.19,6.13a3.93,3.93,0,0,0,3.49,1.8,5.56,5.56,0,0,0,2.07-.38,11.6,11.6,0,0,0,2.12-1.2l2.52,3.38A10.58,10.58,0,0,1,209.58,362.86Z"/><path class="cls-15" d="M235.21,358.11a2.44,2.44,0,0,0,1.17,1l-1.17,3.74a7.31,7.31,0,0,1-3.13-1,4.54,4.54,0,0,1-1.78-2.39,7.13,7.13,0,0,1-6.4,3.47,6.64,6.64,0,0,1-5.09-2,7.47,7.47,0,0,1-1.89-5.31,7.13,7.13,0,0,1,2.57-5.92q2.56-2.06,7.43-2h2.39v-1.49a4.58,4.58,0,0,0-.9-3.2,3.91,3.91,0,0,0-2.93-.94,17.81,17.81,0,0,0-5.76,1.21l-1.31-3.74a20.63,20.63,0,0,1,8-1.71q8.46,0,8.47,8.06v10.45A3.77,3.77,0,0,0,235.21,358.11Zm-7.86-25.35a14.69,14.69,0,0,1-1.51-.88,3.11,3.11,0,0,0-1.76-.81,1.59,1.59,0,0,0-1.15.47,6.61,6.61,0,0,0-1,1.51l-2.88-1.4a9.38,9.38,0,0,1,2.07-3.31A4,4,0,0,1,224,327.1a3.42,3.42,0,0,1,1.51.32,12.19,12.19,0,0,1,1.47.86,3.05,3.05,0,0,0,.47.33,2.69,2.69,0,0,0,.72.36,1.83,1.83,0,0,0,.61.12,1.47,1.47,0,0,0,1.08-.45,7.26,7.26,0,0,0,1-1.49l2.89,1.4a8.1,8.1,0,0,1-2.05,3.33,4.22,4.22,0,0,1-2.91,1.17A3.39,3.39,0,0,1,227.35,332.76Zm2,23.12v-4.95h-1.8q-5,0-5,4.23a4.21,4.21,0,0,0,.77,2.73,2.6,2.6,0,0,0,2.11.92C227.09,358.81,228.38,357.84,229.31,355.88Z"/><path class="cls-15" d="M257.37,341q2.7,3.24,2.7,9.32,0,5.85-2.73,9.23a9.1,9.1,0,0,1-7.5,3.38,9.23,9.23,0,0,1-7.54-3.31q-2.73-3.32-2.72-9.3c0-3.93.9-7,2.72-9.23a10.26,10.26,0,0,1,15.07-.09Zm-10.81,3q-1.08,2-1.08,6.33c0,2.94.36,5.07,1.08,6.37a3.72,3.72,0,0,0,6.57,0q1.08-2,1.08-6.35T253.13,344a3.74,3.74,0,0,0-6.57,0Z"/><path class="cls-15" d="M47.29,278.91a12.64,12.64,0,0,1,4.12,2.88L48.62,285a11.43,11.43,0,0,0-3-1.94,8.12,8.12,0,0,0-3.2-.63,4.5,4.5,0,0,0-3,1,3.47,3.47,0,0,0-1.15,2.75,3.82,3.82,0,0,0,.48,2,4.35,4.35,0,0,0,1.68,1.51,22.32,22.32,0,0,0,3.52,1.51,16.55,16.55,0,0,1,6.24,3.65,8.42,8.42,0,0,1,2,6.08,9.31,9.31,0,0,1-1.3,4.91,9.08,9.08,0,0,1-3.76,3.4,12.67,12.67,0,0,1-5.74,1.24A13.82,13.82,0,0,1,31.1,306.2l3-3.29a14.22,14.22,0,0,0,3.4,2.26,8.94,8.94,0,0,0,3.72.76,5.07,5.07,0,0,0,3.63-1.26,4.56,4.56,0,0,0,1.32-3.47A4.29,4.29,0,0,0,45,298.07a11.51,11.51,0,0,0-4.28-2.23,15.93,15.93,0,0,1-6.49-3.73,7.88,7.88,0,0,1-2-5.54,8,8,0,0,1,1.26-4.44,8.49,8.49,0,0,1,3.52-3.06,11.24,11.24,0,0,1,5-1.11A13.22,13.22,0,0,1,47.29,278.91Z"/><path class="cls-15" d="M61.75,274.92a3.37,3.37,0,0,1,1,2.46,3.33,3.33,0,0,1-1,2.45,3.71,3.71,0,0,1-5,0,3.29,3.29,0,0,1-1-2.45,3.33,3.33,0,0,1,1-2.46,3.74,3.74,0,0,1,5,0Zm.29,11v23.82H56.41V285.94Z"/><path class="cls-15" d="M82.76,288.1l-2.21,3.2a9,9,0,0,0-5.27-1.9,3.48,3.48,0,0,0-2.29.68,2.26,2.26,0,0,0-.82,1.85,2.31,2.31,0,0,0,.39,1.39,3.81,3.81,0,0,0,1.33,1.06,17.68,17.68,0,0,0,2.83,1.15,12.8,12.8,0,0,1,5.09,2.79,6.21,6.21,0,0,1,1.67,4.59,6.53,6.53,0,0,1-2.64,5.52,10.62,10.62,0,0,1-6.64,2,13.13,13.13,0,0,1-4.86-.88,11.66,11.66,0,0,1-3.83-2.46L68.3,304A9.06,9.06,0,0,0,74,306.25a4.23,4.23,0,0,0,2.68-.77,2.58,2.58,0,0,0,1-2.16,3.28,3.28,0,0,0-.38-1.67,3.6,3.6,0,0,0-1.38-1.17,17.36,17.36,0,0,0-3-1.17,11.1,11.1,0,0,1-4.84-2.83,6.24,6.24,0,0,1-1.51-4.24,6.46,6.46,0,0,1,1-3.58,6.94,6.94,0,0,1,3-2.5,10.48,10.48,0,0,1,4.46-.9A11.5,11.5,0,0,1,82.76,288.1Z"/><path class="cls-15" d="M100.19,308.63A8.24,8.24,0,0,1,97.6,310a9.61,9.61,0,0,1-2.91.45,6.45,6.45,0,0,1-5-1.9,7.51,7.51,0,0,1-1.73-5.26V290h-3.2v-4.05h3.2v-5.27l5.63-.68v5.95h5L98,290H93.57v13.24a3.22,3.22,0,0,0,.51,2,2,2,0,0,0,1.65.66,4.81,4.81,0,0,0,2.48-.77Z"/><path class="cls-15" d="M120.09,299.58H106.63q.27,3.6,1.53,5.09a4.36,4.36,0,0,0,3.51,1.49,7.32,7.32,0,0,0,2.7-.5,12.92,12.92,0,0,0,2.71-1.53l2.34,3.2a12,12,0,0,1-8.15,3.11,9.43,9.43,0,0,1-7.71-3.29q-2.7-3.28-2.7-9.14c0-3.85.87-6.93,2.59-9.26a9.36,9.36,0,0,1,14.26-.38q2.52,3.11,2.52,8.92C120.23,297.56,120.18,298.32,120.09,299.58Zm-5.4-3.92a9.75,9.75,0,0,0-1-4.84,3.56,3.56,0,0,0-5.92,0,10.87,10.87,0,0,0-1.19,5.15h8.06Z"/><path class="cls-15" d="M151.89,287.17a7.83,7.83,0,0,1,1.57,5.12v17.47h-5.58V293c0-2.31-.71-3.47-2.12-3.47a3,3,0,0,0-2.07.88,9.61,9.61,0,0,0-1.84,2.59v16.75h-5.54V293c0-2.31-.71-3.47-2.12-3.47a3,3,0,0,0-2.12.9,9.59,9.59,0,0,0-1.8,2.57v16.75h-5.58V285.94h4.91L130,289q2.48-3.74,6.17-3.74a5,5,0,0,1,3.2,1.06,6,6,0,0,1,2,2.95,10.2,10.2,0,0,1,2.81-3,6.32,6.32,0,0,1,3.58-1A5.12,5.12,0,0,1,151.89,287.17Z"/><path class="cls-15" d="M175.89,305.64a2.44,2.44,0,0,0,1.17,1l-1.17,3.74a7.36,7.36,0,0,1-3.13-1A4.59,4.59,0,0,1,171,307a7.12,7.12,0,0,1-6.39,3.47,6.64,6.64,0,0,1-5.09-2,7.47,7.47,0,0,1-1.89-5.31,7.14,7.14,0,0,1,2.56-5.93c1.72-1.36,4.19-2.05,7.44-2.05H170v-1.48a4.58,4.58,0,0,0-.9-3.2,3.89,3.89,0,0,0-2.93-.95,17.87,17.87,0,0,0-5.76,1.22L159.09,287a20.67,20.67,0,0,1,8-1.71q8.46,0,8.46,8.06v10.45A3.79,3.79,0,0,0,175.89,305.64Zm-5.9-2.23v-5h-1.8q-5,0-4.95,4.23a4.16,4.16,0,0,0,.76,2.72,2.6,2.6,0,0,0,2.12.93Q168.6,306.34,170,303.41Z"/><path class="cls-15" d="M196,288.1l-2.2,3.2a9,9,0,0,0-5.27-1.9,3.51,3.51,0,0,0-2.3.68,2.28,2.28,0,0,0-.81,1.85,2.38,2.38,0,0,0,.38,1.39,3.9,3.9,0,0,0,1.33,1.06,17.87,17.87,0,0,0,2.84,1.15,12.8,12.8,0,0,1,5.09,2.79,6.2,6.2,0,0,1,1.66,4.59,6.52,6.52,0,0,1-2.63,5.52,10.64,10.64,0,0,1-6.64,2,13.19,13.19,0,0,1-4.87-.88,11.62,11.62,0,0,1-3.82-2.46l2.79-3.1a9.06,9.06,0,0,0,5.72,2.25,4.23,4.23,0,0,0,2.68-.77,2.6,2.6,0,0,0,1-2.16,3.18,3.18,0,0,0-.38-1.67,3.48,3.48,0,0,0-1.37-1.17,17.7,17.7,0,0,0-3-1.17,11.1,11.1,0,0,1-4.84-2.83,6.19,6.19,0,0,1-1.51-4.24,6.46,6.46,0,0,1,1-3.58,6.94,6.94,0,0,1,3-2.5,10.48,10.48,0,0,1,4.46-.9A11.47,11.47,0,0,1,196,288.1Z"/><path class="cls-15" d="M224,301.69H212.19a8.3,8.3,0,0,0,1.64,5.12,4.92,4.92,0,0,0,3.87,1.67,6.66,6.66,0,0,0,2.45-.42,11,11,0,0,0,2.31-1.34l.91,1.25a9.93,9.93,0,0,1-2.7,1.62,8.39,8.39,0,0,1-3.07.54,6.78,6.78,0,0,1-5.51-2.4,10.07,10.07,0,0,1-2-6.65,13,13,0,0,1,.86-4.91,7.36,7.36,0,0,1,2.47-3.28,6.16,6.16,0,0,1,3.73-1.17,6.08,6.08,0,0,1,5.13,2.28,10,10,0,0,1,1.76,6.27A13,13,0,0,1,224,301.69Zm-1.86-2a7.68,7.68,0,0,0-1.23-4.64,4.24,4.24,0,0,0-3.66-1.68,4.34,4.34,0,0,0-3.55,1.69,8.73,8.73,0,0,0-1.49,5.14h9.93Z"/><path class="cls-1" d="M47.25,390.58A7.75,7.75,0,0,1,50,397a8.43,8.43,0,0,1-2.62,6.68,10.52,10.52,0,0,1-7.2,2.31H38.3v8.42H31.52v-26h7.91Q44.52,388.38,47.25,390.58Zm-5,9.6a4.84,4.84,0,0,0,.84-3.18,4.33,4.33,0,0,0-.83-2.9,3.36,3.36,0,0,0-2.69-1H38.3v8h1.24A3.38,3.38,0,0,0,42.22,400.18Z"/><path class="cls-1" d="M67.44,388.38l-.71,4.8H58.94v5.69h6.85v4.68H58.94v6h8.31v4.83H52.16v-26Z"/><path class="cls-1" d="M83,388.57a10.81,10.81,0,0,1,3.74,2.59l-3,3.52a7.45,7.45,0,0,0-4.91-2.1,3,3,0,0,0-2.06.62,2.15,2.15,0,0,0-.71,1.7,2.07,2.07,0,0,0,.37,1.26,3.77,3.77,0,0,0,1.28,1,28.07,28.07,0,0,0,2.65,1.14,19.1,19.1,0,0,1,3.92,2,7,7,0,0,1,2.25,2.61,8.6,8.6,0,0,1,.76,3.83,8.06,8.06,0,0,1-1.18,4.37A7.77,7.77,0,0,1,82.75,414a12.1,12.1,0,0,1-5.24,1,12.37,12.37,0,0,1-9.36-3.79l3.26-3.59a12.56,12.56,0,0,0,2.79,1.83,6.71,6.71,0,0,0,2.9.64,3.26,3.26,0,0,0,2.38-.79,2.8,2.8,0,0,0,.8-2.09,2.75,2.75,0,0,0-.82-2.1,9.45,9.45,0,0,0-3-1.61,14.29,14.29,0,0,1-5.66-3.41,6.88,6.88,0,0,1-1.65-4.72,7.19,7.19,0,0,1,1.18-4.08,7.8,7.8,0,0,1,3.24-2.72,10.92,10.92,0,0,1,4.61-1A12.73,12.73,0,0,1,83,388.57Z"/><path class="cls-1" d="M104,388.46a11.05,11.05,0,0,1,3.43,2.21l-3.14,3.71a9.8,9.8,0,0,0-2-1.28,4.75,4.75,0,0,0-2-.45q-4.45,0-4.46,8.69c0,3,.39,5.18,1.16,6.56a3.66,3.66,0,0,0,3.34,2.06,4.73,4.73,0,0,0,2.15-.49,14.48,14.48,0,0,0,2.23-1.5l3,3.67a11.33,11.33,0,0,1-3.42,2.49,10.17,10.17,0,0,1-4.44,1,10,10,0,0,1-8.07-3.51q-3-3.49-3-10.24a17.78,17.78,0,0,1,1.41-7.45,10.3,10.3,0,0,1,3.89-4.63,10.69,10.69,0,0,1,5.75-1.55A11,11,0,0,1,104,388.46Z"/><path class="cls-16" d="M119.91,383.49l1.86.43-8.1,34.31-1.85-.43Z"/><path class="cls-16" d="M142,387.7a11.38,11.38,0,0,1,3.53,2.27l-3.24,3.82a9.44,9.44,0,0,0-2-1.31,4.88,4.88,0,0,0-2.1-.47q-4.59,0-4.59,8.95,0,4.62,1.2,6.74a3.73,3.73,0,0,0,3.43,2.12,4.7,4.7,0,0,0,2.21-.5,13.68,13.68,0,0,0,2.3-1.54l3.08,3.78a11.45,11.45,0,0,1-3.53,2.56,11.25,11.25,0,0,1-12.87-2.62q-3.07-3.6-3.07-10.54a18.23,18.23,0,0,1,1.45-7.67,10.63,10.63,0,0,1,4-4.77,11,11,0,0,1,5.91-1.6A11.25,11.25,0,0,1,142,387.7Z"/><path class="cls-16" d="M163.15,396c1.68,1.86,2.53,4.59,2.53,8.19,0,3.44-.85,6.13-2.53,8a8.75,8.75,0,0,1-7,2.9,8.91,8.91,0,0,1-7-2.8q-2.51-2.79-2.5-8.19,0-5.16,2.52-8.06a8.77,8.77,0,0,1,7-2.89A8.88,8.88,0,0,1,163.15,396Zm-8.92,3.48a12.37,12.37,0,0,0-.62,4.67,13.13,13.13,0,0,0,.6,4.76,2.1,2.1,0,0,0,3.95,0,18.53,18.53,0,0,0,0-9.43,2.09,2.09,0,0,0-3.93,0Z"/><path class="cls-16" d="M184.85,396c1.15,1.89,1.72,4.59,1.72,8.08a16.78,16.78,0,0,1-.91,5.78,8.61,8.61,0,0,1-2.58,3.88,6,6,0,0,1-3.87,1.37,5.45,5.45,0,0,1-4.32-2.05v9.29l-6.71.7V393.86h6l.23,2.16a6.37,6.37,0,0,1,5.36-2.85A5.58,5.58,0,0,1,184.85,396Zm-5.14,8.16a13.41,13.41,0,0,0-.58-4.86,1.83,1.83,0,0,0-1.7-1.27c-1,0-1.82.67-2.54,2v8.75a2.71,2.71,0,0,0,2.23,1.47Q179.71,410.25,179.71,404.16Z"/><path class="cls-16" d="M205.86,396c1.15,1.89,1.72,4.59,1.72,8.08a17,17,0,0,1-.9,5.78,8.71,8.71,0,0,1-2.59,3.88,6,6,0,0,1-3.87,1.37,5.46,5.46,0,0,1-4.32-2.05v9.29l-6.71.7V393.86h6l.23,2.16a6.37,6.37,0,0,1,5.36-2.85A5.58,5.58,0,0,1,205.86,396Zm-5.14,8.16a13.41,13.41,0,0,0-.58-4.86,1.83,1.83,0,0,0-1.7-1.27c-1,0-1.82.67-2.54,2v8.75a2.71,2.71,0,0,0,2.24,1.47Q200.72,410.25,200.72,404.16Z"/><path class="cls-16" d="M227.43,406.08H216.1a5.52,5.52,0,0,0,1.12,3.32,3.5,3.5,0,0,0,2.58.89,5.65,5.65,0,0,0,2.1-.41,10.79,10.79,0,0,0,2.26-1.29l2.7,3.62a11.1,11.1,0,0,1-7.64,2.9q-4.82,0-7.32-2.93a11.84,11.84,0,0,1-2.51-7.95,14.81,14.81,0,0,1,1-5.7,8.72,8.72,0,0,1,3.11-3.93,8.62,8.62,0,0,1,5-1.43,8.34,8.34,0,0,1,6.59,2.76q2.43,2.74,2.43,7.88A18.36,18.36,0,0,1,227.43,406.08ZM221,401.92a8.24,8.24,0,0,0-.52-3.33,1.86,1.86,0,0,0-1.84-1.1,2,2,0,0,0-1.81,1,8.69,8.69,0,0,0-.77,3.68H221Z"/></svg>